<svg xmlns="http://www.w3.org/2000/svg" width="72" height="72" viewBox="0 0 72 72">
    <g fill="#000" fill-rule="nonzero">
        <path d="M64.969 6.188h-6.703v-1.97A4.224 4.224 0 0 0 54.046 0a4.224 4.224 0 0 0-4.218 4.219v1.968H26.203V4.22A4.224 4.224 0 0 0 21.984 0a4.224 4.224 0 0 0-4.218 4.219v2.02a1.403 1.403 0 0 0-.375-.051h-5.603a7.04 7.04 0 0 0-7.032 7.03v23.954a1.406 1.406 0 0 0 2.813 0v-16.5h50.697a1.406 1.406 0 0 0 0-2.813H7.569v-4.64A4.224 4.224 0 0 1 11.788 9h5.603c.13 0 .255-.02.375-.052v1.81a4.224 4.224 0 0 0 4.218 4.219 4.224 4.224 0 0 0 4.22-4.22V9h23.624v1.758a4.224 4.224 0 0 0 4.219 4.219 4.224 4.224 0 0 0 4.219-4.22V9h6.703a4.224 4.224 0 0 1 4.219 4.219v53.436a2.535 2.535 0 0 1-2.533 2.532 2.535 2.535 0 0 1-2.532-2.532v-3.637c0-.777-.63-1.407-1.406-1.407H46.36a1.406 1.406 0 0 0 0 2.813h14.952v2.231c0 .916.232 1.778.639 2.532H5.344a2.534 2.534 0 0 1-2.532-2.53v-2.233h31.476a1.406 1.406 0 0 0 0-2.813h-14.05a11.506 11.506 0 0 0 4.017-8.736c0-6.358-5.173-11.531-11.531-11.531-6.359 0-11.532 5.173-11.532 11.531 0 3.49 1.56 6.62 4.018 8.736H1.406c-.776 0-1.406.63-1.406 1.407v3.638A5.35 5.35 0 0 0 5.344 72h61.311A5.35 5.35 0 0 0 72 66.655V13.22a7.04 7.04 0 0 0-7.031-7.031zm-41.578 4.57a1.408 1.408 0 0 1-2.813 0v-6.54c0-.775.63-1.405 1.406-1.405.776 0 1.407.63 1.407 1.406v6.539zm32.062 0c0 .775-.63 1.406-1.406 1.406-.776 0-1.406-.63-1.406-1.406v-6.54c0-.775.63-1.405 1.406-1.405.775 0 1.406.63 1.406 1.406v6.539zM4.005 52.875c0-4.808 3.911-8.719 8.719-8.719 4.807 0 8.718 3.911 8.718 8.719s-3.91 8.719-8.718 8.719-8.72-3.911-8.72-8.719z"/>
        <path d="M65.56 18.44A1.51 1.51 0 0 0 64.5 18c-.395 0-.782.16-1.06.44-.28.278-.44.665-.44 1.06s.16.782.44 1.06c.279.28.665.44 1.06.44.394 0 .781-.16 1.06-.44.28-.278.44-.665.44-1.06s-.16-.782-.44-1.06zM42.56 62.438A1.509 1.509 0 0 0 41.5 62c-.395 0-.782.16-1.06.438-.28.28-.44.667-.44 1.061 0 .396.16.782.44 1.063.279.279.666.438 1.06.438.395 0 .782-.16 1.06-.438.28-.28.44-.668.44-1.063 0-.394-.16-.78-.44-1.06zM31.5 43a5.506 5.506 0 0 0-5.5 5.5c0 3.033 2.467 5.5 5.5 5.5s5.5-2.467 5.5-5.5-2.467-5.5-5.5-5.5zm0 8.105a2.608 2.608 0 0 1-2.605-2.605 2.608 2.608 0 0 1 2.605-2.605 2.608 2.608 0 0 1 2.605 2.605 2.608 2.608 0 0 1-2.605 2.605zM44.5 43a5.506 5.506 0 0 0-5.5 5.5c0 3.033 2.467 5.5 5.5 5.5s5.5-2.467 5.5-5.5-2.467-5.5-5.5-5.5zm0 8.105a2.608 2.608 0 0 1-2.605-2.605 2.608 2.608 0 0 1 2.605-2.605 2.608 2.608 0 0 1 2.605 2.605 2.608 2.608 0 0 1-2.605 2.605zM58.5 43a5.506 5.506 0 0 0-5.5 5.5c0 3.033 2.467 5.5 5.5 5.5s5.5-2.467 5.5-5.5-2.467-5.5-5.5-5.5zm0 8.105a2.608 2.608 0 0 1-2.605-2.605 2.608 2.608 0 0 1 2.605-2.605 2.608 2.608 0 0 1 2.605 2.605 2.608 2.608 0 0 1-2.605 2.605zM18.5 28a5.506 5.506 0 0 0-5.5 5.5c0 3.033 2.467 5.5 5.5 5.5s5.5-2.467 5.5-5.5-2.467-5.5-5.5-5.5zm0 8.105a2.608 2.608 0 0 1-2.605-2.605 2.608 2.608 0 0 1 2.605-2.605 2.608 2.608 0 0 1 2.605 2.605 2.608 2.608 0 0 1-2.605 2.605zM44.5 28a5.506 5.506 0 0 0-5.5 5.5c0 3.033 2.467 5.5 5.5 5.5s5.5-2.467 5.5-5.5-2.467-5.5-5.5-5.5zm0 8.105a2.608 2.608 0 0 1-2.605-2.605 2.608 2.608 0 0 1 2.605-2.605 2.608 2.608 0 0 1 2.605 2.605 2.608 2.608 0 0 1-2.605 2.605zM58.5 28a5.506 5.506 0 0 0-5.5 5.5c0 3.033 2.467 5.5 5.5 5.5s5.5-2.467 5.5-5.5-2.467-5.5-5.5-5.5zm0 8.105a2.608 2.608 0 0 1-2.605-2.605 2.608 2.608 0 0 1 2.605-2.605 2.608 2.608 0 0 1 2.605 2.605 2.608 2.608 0 0 1-2.605 2.605zM31.5 28a5.506 5.506 0 0 0-5.5 5.5c0 3.033 2.467 5.5 5.5 5.5s5.5-2.467 5.5-5.5-2.467-5.5-5.5-5.5zm0 8.105a2.608 2.608 0 0 1-2.605-2.605 2.608 2.608 0 0 1 2.605-2.605 2.608 2.608 0 0 1 2.605 2.605 2.608 2.608 0 0 1-2.605 2.605zM17.586 49.393a1.467 1.467 0 0 0-1.999 0l-4.602 4.369-1.572-1.493a1.467 1.467 0 0 0-2 0 1.294 1.294 0 0 0 0 1.897l2.573 2.441c.265.252.625.393 1 .393.374 0 .733-.141.999-.393l5.601-5.317a1.294 1.294 0 0 0 0-1.897z"/>
    </g>
</svg>
