<svg xmlns="http://www.w3.org/2000/svg" width="223" height="40" viewBox="0 0 223 40">
    <g fill="none" fill-rule="evenodd">
        <rect width="66" height="40" x="157" fill="#2669E6" rx="7.111"/>
        <path fill="#1B324B" fill-rule="nonzero" d="M1.742 27.04v-3.858c0-.498-.153-.892-.46-1.182-.307-.29-.734-.436-1.282-.436v-3.982c.548 0 .975-.145 1.282-.435.307-.29.46-.685.46-1.183v-3.857c0-1.245.374-2.24 1.12-2.987C3.61 8.373 4.604 8 5.85 8h2.115v3.36h-1.12c-.912 0-1.368.456-1.368 1.369v3.982c0 .996-.415 1.742-1.245 2.24a3.5 3.5 0 0 1-1.244.373v.498a3.5 3.5 0 0 1 1.244.374c.83.497 1.245 1.244 1.245 2.24v3.982c0 .912.456 1.369 1.368 1.369h1.12v3.36H5.85c-1.245 0-2.24-.374-2.987-1.12-.746-.747-1.12-1.743-1.12-2.987zm16.605-5.849h3.857c-.165.93-.522 1.8-1.07 2.613-1.211 1.743-2.97 2.614-5.276 2.614-1.925 0-3.505-.618-4.742-1.854-1.236-1.237-1.854-2.817-1.854-4.742 0-1.925.618-3.505 1.854-4.741 1.237-1.236 2.817-1.854 4.742-1.854 2.223 0 3.982.87 5.276 2.613a6.767 6.767 0 0 1 1.07 2.613h-3.857a3.412 3.412 0 0 0-.498-.87c-.514-.582-1.178-.872-1.991-.872-.83 0-1.514.286-2.054.859-.539.572-.808 1.323-.808 2.252 0 .93.27 1.68.808 2.253.54.572 1.224.858 2.054.858.863 0 1.526-.29 1.99-.87.183-.216.35-.507.499-.872zm5.777 4.978V8.747h3.734v5.724h.124c.282-.282.54-.49.772-.622.73-.415 1.551-.622 2.464-.622 1.493 0 2.717.485 3.67 1.456.955.97 1.432 2.227 1.432 3.77v7.716h-3.733V19.2c0-.697-.22-1.265-.66-1.705-.44-.44-1.008-.66-1.705-.66-.697 0-1.265.22-1.705.66-.44.44-.66 1.008-.66 1.705v6.969h-3.733zm22.578 0l-.249-1.12h-.124c-.2.232-.481.464-.846.697-.68.448-1.56.672-2.639.672-1.46 0-2.613-.374-3.46-1.12-.845-.747-1.268-1.701-1.268-2.862 0-1.228.448-2.22 1.344-2.975.896-.755 2.19-1.132 3.882-1.132h2.862v-.249c0-.564-.174-1.016-.522-1.356-.349-.34-.838-.51-1.469-.51-.647 0-1.178.19-1.593.572-.199.199-.331.381-.398.547h-3.609c.15-1.194.706-2.177 1.668-2.949.962-.772 2.273-1.157 3.932-1.157 1.809 0 3.215.44 4.219 1.319 1.004.88 1.506 2.049 1.506 3.51v8.113h-3.236zm-.498-5.102v-.25H43.84c-.664 0-1.161.125-1.493.374-.332.249-.498.58-.498.996 0 .398.153.726.46.983.307.257.735.386 1.282.386.797 0 1.431-.229 1.904-.685.473-.456.71-1.058.71-1.804zm6.276 5.102V8.747h3.733v17.422H52.48zm6.524 0V8.747h3.734v17.422h-3.734zm14.738-3.858h3.734a6.428 6.428 0 0 1-1.27 2.066c-1.294 1.36-2.903 2.04-4.828 2.04-1.925 0-3.505-.617-4.742-1.853-1.236-1.237-1.854-2.817-1.854-4.742 0-1.925.618-3.505 1.854-4.741 1.237-1.236 2.817-1.854 4.742-1.854 1.858 0 3.401.605 4.63 1.817 1.227 1.21 1.84 2.72 1.84 4.53 0 .232-.024.547-.074.945l-.05.299h-9.208c.066.763.36 1.39.883 1.879.523.49 1.182.734 1.979.734a3.09 3.09 0 0 0 1.792-.547c.265-.2.456-.39.572-.573zm-5.226-3.733h5.724c-.365-1.66-1.32-2.49-2.862-2.49-1.543 0-2.497.83-2.862 2.49zm11.253 7.59V13.477h3.235l.25 1.12h.124c.166-.194.39-.382.67-.564l.176-.108c.713-.465 1.593-.697 2.638-.697 1.494 0 2.717.485 3.671 1.456.954.97 1.431 2.227 1.431 3.77v7.716h-3.733V19.2c0-.697-.22-1.265-.66-1.705-.44-.44-1.007-.66-1.704-.66-.697 0-1.266.22-1.705.66-.44.44-.66 1.008-.66 1.705v6.969H79.77zm14.24.499h3.858c.066.249.207.48.423.697.448.448 1.095.672 1.941.672.797 0 1.41-.208 1.842-.623.431-.414.647-.995.647-1.742v-1.493h-.124a2.996 2.996 0 0 1-.59.525l-.157.097c-.63.415-1.377.622-2.24.622-1.71 0-3.111-.568-4.206-1.705-1.095-1.136-1.643-2.6-1.643-4.393 0-1.792.548-3.256 1.643-4.392 1.095-1.137 2.497-1.705 4.206-1.705.946 0 1.767.249 2.464.746.282.216.54.465.771.747h.125l.249-1.244h3.235V25.67c0 1.776-.53 3.153-1.593 4.132-1.061.979-2.605 1.468-4.629 1.468-2.472 0-4.24-.763-5.301-2.29a5.125 5.125 0 0 1-.921-2.314zm4.231-5.476c.498.498 1.12.747 1.867.747.746 0 1.369-.25 1.866-.747.498-.498.747-1.12.747-1.867 0-.746-.249-1.368-.747-1.866-.497-.498-1.12-.747-1.866-.747-.747 0-1.37.249-1.867.747-.498.498-.747 1.12-.747 1.866 0 .747.25 1.37.747 1.867zm19.093 1.12h3.734a6.428 6.428 0 0 1-1.27 2.066c-1.294 1.36-2.903 2.04-4.828 2.04-1.925 0-3.505-.617-4.741-1.853-1.237-1.237-1.855-2.817-1.855-4.742 0-1.925.618-3.505 1.855-4.741 1.236-1.236 2.816-1.854 4.74-1.854 1.86 0 3.402.605 4.63 1.817 1.228 1.21 1.842 2.72 1.842 4.53 0 .232-.025.547-.075.945l-.05.299h-9.208c.066.763.36 1.39.883 1.879.523.49 1.182.734 1.979.734a3.09 3.09 0 0 0 1.792-.547c.265-.2.456-.39.572-.573zm-5.226-3.733h5.724c-.365-1.66-1.319-2.49-2.862-2.49-1.543 0-2.497.83-2.862 2.49zm11.253 7.59V13.477h3.236l.248.995h.125c.166-.199.34-.365.523-.498.448-.332 1.02-.497 1.717-.497h2.364v3.484h-2.24c-1.493 0-2.24.747-2.24 2.24v6.969h-3.733zm8.764-3.981h3.61c.033.298.124.547.273.746.365.498.98.747 1.842.747.647 0 1.14-.12 1.48-.36.34-.241.511-.536.511-.884 0-.382-.108-.664-.324-.847-.215-.182-.605-.315-1.17-.398l-1.866-.249c-1.477-.199-2.551-.601-3.223-1.207-.672-.606-1.008-1.448-1.008-2.526 0-1.128.481-2.074 1.443-2.837.963-.764 2.307-1.145 4.032-1.145 2.24 0 3.842.663 4.804 1.99.431.582.697 1.245.796 1.992h-3.608a1.549 1.549 0 0 0-.349-.548c-.382-.381-.93-.572-1.643-.572-.613 0-1.078.104-1.393.311-.316.207-.473.477-.473.809 0 .514.498.846 1.493.995l1.867.25c2.82.364 4.23 1.692 4.23 3.982 0 1.128-.489 2.074-1.468 2.837-.979.763-2.356 1.145-4.131 1.145-2.356 0-4.024-.705-5.003-2.116a4.145 4.145 0 0 1-.722-2.115zm12.498 8.96v-3.36h1.12c.913 0 1.37-.457 1.37-1.37v-3.981c0-.996.414-1.743 1.244-2.24a3.5 3.5 0 0 1 1.244-.374v-.498a3.5 3.5 0 0 1-1.244-.373c-.83-.498-1.245-1.244-1.245-2.24V12.73c0-.913-.456-1.369-1.369-1.369h-1.12V8h2.116c1.244 0 2.24.373 2.986 1.12.747.747 1.12 1.742 1.12 2.987v3.857c0 .498.154.892.46 1.183.308.29.735.435 1.283.435v3.982c-.548 0-.975.146-1.282.436-.307.29-.46.684-.46 1.182v3.858c0 1.244-.374 2.24-1.12 2.987-.747.746-1.743 1.12-2.987 1.12h-2.116z"/>
        <path fill="#FFF" fill-rule="nonzero" d="M167 31V9h6.387v3.312h-2.839v15.376h2.84V31H167zm8.634-4.731v-3.903h3.904v3.903h-3.904zm14.312 0l-.236-1.065h-.119c-.189.221-.457.442-.804.663-.647.425-1.482.638-2.507.638-1.388 0-2.484-.354-3.289-1.064-.804-.71-1.206-1.617-1.206-2.72 0-1.168.426-2.11 1.277-2.827.852-.718 2.082-1.077 3.69-1.077h2.721v-.236c0-.537-.165-.966-.497-1.29-.33-.323-.796-.485-1.395-.485-.615 0-1.12.182-1.514.545-.19.189-.316.362-.379.52h-3.43c.142-1.136.67-2.07 1.585-2.803.915-.734 2.16-1.1 3.738-1.1 1.719 0 3.055.418 4.01 1.254.953.835 1.43 1.947 1.43 3.335v7.712h-3.075zm-.473-4.85v-.236h-2.247c-.631 0-1.104.118-1.42.355a1.124 1.124 0 0 0-.473.946c0 .378.146.69.438.934.292.245.698.367 1.218.367.757 0 1.36-.217 1.81-.65.45-.434.674-1.006.674-1.716zm5.678 4.85v-3.194l5.322-5.559h-5.204v-3.312h10.054v3.194L200 22.957h5.44v3.312h-10.29zM207.097 31v-3.312h2.838V12.312h-2.838V9h6.387v22h-6.387z"/>
    </g>
</svg>
