<svg xmlns="http://www.w3.org/2000/svg" xmlns:xlink="http://www.w3.org/1999/xlink" width="180" height="46" viewBox="0 0 180 46">
    <defs>
        <path id="a" d="M0 45.395h179.937V0H0z"/>
    </defs>
    <g fill="none" fill-rule="evenodd">
        <path fill="#000" d="M65.4 16.097h2.452a6.313 6.313 0 0 1-.552 1.496c-.254.491-.596.97-1.03 1.446-.431.476-1 .857-1.702 1.15-.703.296-1.487.443-2.352.443-1.783 0-3.249-.587-4.399-1.764-1.152-1.176-1.728-2.714-1.728-4.608 0-1.895.576-3.43 1.728-4.607 1.15-1.176 2.616-1.766 4.399-1.766 1.634 0 2.915.463 3.846 1.385.931.924 1.53 1.934 1.79 3.03h-2.451c-.524-1.473-1.584-2.207-3.185-2.207-1.063 0-1.94.38-2.635 1.137-.695.76-1.04 1.77-1.04 3.028 0 1.26.345 2.265 1.04 3.027.694.76 1.572 1.139 2.635 1.139.883 0 1.59-.237 2.131-.712.54-.473.89-1.012 1.054-1.617M69.935 20.386V3.231h2.451v6.128h.123c.276-.278.578-.523.907-.736.784-.49 1.667-.736 2.646-.736 1.487 0 2.676.463 3.566 1.385.891.924 1.336 2.18 1.336 3.763v7.351h-2.451v-7.35c0-.803-.283-1.493-.846-2.073-.565-.578-1.261-.868-2.096-.868-.898 0-1.654.29-2.265.868-.613.58-.92 1.27-.92 2.072v7.351h-2.451zM91.134 15.24v-.489h-2.942c-.898 0-1.573.178-2.022.537-.449.361-.672.834-.672 1.424 0 .571.186 1.02.563 1.345.374.328.922.492 1.64.492 1.11 0 1.96-.289 2.55-.871.59-.579.883-1.391.883-2.438zm.368 5.147l-.246-1.35h-.122c-.246.314-.541.581-.883.811-.784.524-1.715.785-2.793.785-1.34 0-2.41-.35-3.211-1.056-.802-.701-1.2-1.617-1.2-2.743 0-1.26.42-2.247 1.261-2.966.841-.718 2.094-1.08 3.761-1.08h3.065v-.243c0-.801-.23-1.43-.686-1.89-.458-.456-1.089-.684-1.888-.684-.784 0-1.389.176-1.814.528-.425.35-.679.747-.76 1.188h-2.451c.068-1.078.548-1.98 1.446-2.708.9-.727 2.092-1.09 3.579-1.09 1.586 0 2.819.416 3.7 1.25.882.832 1.325 1.967 1.325 3.406v7.842h-2.083z"/>
        <mask id="b" fill="#fff">
            <use xlink:href="#a"/>
        </mask>
        <path fill="#000" d="M96.28 20.387h2.451V3.23h-2.45zM101.671 20.387h2.451V3.23h-2.451zM108.778 13.28h7.231c-.131-.996-.517-1.798-1.154-2.403-.635-.604-1.435-.907-2.401-.907-1.012 0-1.829.3-2.451.894-.62.598-1.03 1.402-1.225 2.416m6.618 3.553h2.574c-.362.981-1.01 1.86-1.95 2.635-.94.776-2.127 1.163-3.566 1.163-1.78 0-3.246-.587-4.398-1.763-1.15-1.176-1.729-2.714-1.729-4.609 0-1.894.579-3.43 1.729-4.606 1.152-1.177 2.617-1.766 4.398-1.766 1.667 0 3.064.574 4.193 1.715 1.125 1.146 1.688 2.574 1.688 4.29 0 .148-.021.442-.072.884l-.05.342h-9.435c.132 1.045.53 1.877 1.2 2.497.671.624 1.497.933 2.476.933.688 0 1.295-.168 1.827-.501.53-.338.902-.739 1.115-1.214M120.418 20.386V8.133h2.206l.246 1.226h.122c.276-.278.578-.523.907-.736.784-.49 1.667-.736 2.646-.736 1.487 0 2.677.463 3.566 1.385.892.924 1.336 2.18 1.336 3.763v7.351h-2.45v-7.35c0-.803-.283-1.493-.846-2.073-.565-.578-1.262-.868-2.097-.868-.898 0-1.653.29-2.264.868-.614.58-.92 1.27-.92 2.072v7.351h-2.452zM136.827 16.429c.644.68 1.465 1.016 2.462 1.016.997 0 1.818-.337 2.464-1.016.644-.679.968-1.564.968-2.66 0-1.094-.324-1.98-.968-2.658-.646-.677-1.467-1.017-2.464-1.017-.997 0-1.818.34-2.462 1.017-.646.679-.968 1.564-.968 2.659 0 1.095.322 1.98.968 2.659m-3.052 4.692h2.452c.065.605.379 1.124.941 1.56.566.431 1.313.646 2.244.646.98 0 1.778-.296 2.39-.894.613-.596.92-1.36.92-2.291v-1.96h-.123a8.339 8.339 0 0 1-.736.663c-.213.162-.598.337-1.153.526-.554.188-1.191.28-1.91.28-1.553 0-2.84-.54-3.86-1.627-1.022-1.091-1.533-2.504-1.533-4.254 0-1.748.51-3.165 1.534-4.252 1.018-1.086 2.306-1.63 3.86-1.63 1.631 0 2.9.53 3.798 1.593h.122l.246-1.347h2.205v12.008c0 1.632-.508 2.94-1.52 3.92-1.014.98-2.427 1.47-4.24 1.47-.947 0-1.797-.144-2.548-.44-.754-.293-1.336-.674-1.752-1.139a5.68 5.68 0 0 1-.955-1.421 4.081 4.081 0 0 1-.382-1.411M149.705 13.28h7.229c-.131-.996-.515-1.798-1.152-2.403-.635-.604-1.437-.907-2.4-.907-1.015 0-1.83.3-2.452.894-.62.598-1.03 1.402-1.225 2.416m6.618 3.553h2.572c-.36.981-1.008 1.86-1.948 2.635-.94.776-2.129 1.163-3.566 1.163-1.78 0-3.246-.587-4.398-1.763-1.153-1.176-1.729-2.714-1.729-4.609 0-1.894.576-3.43 1.729-4.606 1.152-1.177 2.617-1.766 4.398-1.766 1.665 0 3.065.574 4.19 1.715 1.129 1.146 1.692 2.574 1.692 4.29 0 .148-.025.442-.073.884l-.05.342h-9.435c.132 1.045.53 1.877 1.2 2.497.671.624 1.495.933 2.476.933.686 0 1.295-.168 1.827-.501.53-.338.9-.739 1.115-1.214M161.345 20.386V8.133h2.084l.245 1.104h.123c.015-.018.07-.075.16-.173.09-.097.146-.162.17-.197a1.93 1.93 0 0 1 .184-.184c.097-.09.18-.15.246-.182.065-.03.155-.08.27-.136.113-.057.231-.096.354-.123a9.61 9.61 0 0 1 .43-.072c.161-.024.334-.037.514-.037h2.206v2.206h-1.96c-1.716 0-2.574.85-2.574 2.55v7.497h-2.452zM169.643 16.711h2.451c0 .44.246.859.736 1.249.489.392 1.183.59 2.081.59.85 0 1.492-.16 1.926-.478.431-.318.65-.69.65-1.117 0-.44-.14-.787-.418-1.041-.278-.252-.751-.436-1.422-.55l-2.206-.37c-2.367-.39-3.552-1.575-3.552-3.55 0-1.03.42-1.88 1.261-2.55.841-.67 2.055-1.006 3.64-1.006.833 0 1.589.132 2.268.39.677.265 1.21.6 1.592 1.005.384.41.673.822.87 1.24.195.416.294.804.294 1.163h-2.452c0-.422-.219-.817-.661-1.176-.44-.357-1.078-.539-1.91-.539-.817 0-1.43.143-1.84.427-.408.287-.611.636-.611 1.045 0 .734.61 1.223 1.837 1.47l2.206.368c2.368.39 3.553 1.617 3.553 3.674 0 1.047-.43 1.92-1.286 2.624-.858.703-2.105 1.053-3.739 1.053-.915 0-1.735-.138-2.462-.416-.727-.276-1.283-.63-1.665-1.056-.385-.425-.672-.845-.858-1.26a2.86 2.86 0 0 1-.283-1.189M65.4 37.628h2.452a6.364 6.364 0 0 1-.552 1.498 6.84 6.84 0 0 1-1.03 1.446c-.431.475-1 .856-1.702 1.15-.703.295-1.487.442-2.352.442-1.783 0-3.249-.587-4.399-1.763-1.152-1.179-1.728-2.714-1.728-4.609s.576-3.432 1.728-4.606c1.15-1.179 2.616-1.766 4.399-1.766 1.634 0 2.915.46 3.846 1.384.931.925 1.53 1.932 1.79 3.028h-2.451c-.524-1.472-1.584-2.206-3.185-2.206-1.063 0-1.94.379-2.635 1.139-.695.76-1.04 1.768-1.04 3.027 0 1.257.345 2.265 1.04 3.025.694.76 1.572 1.14 2.635 1.14.883 0 1.59-.235 2.131-.71.54-.474.89-1.012 1.054-1.62M69.935 41.92h2.451V24.762h-2.45zM75.203 37.016v-7.35h2.45v7.35c0 .802.283 1.494.846 2.07.565.58 1.264.872 2.097.872.898 0 1.653-.292 2.267-.872.61-.576.917-1.268.917-2.07v-7.35h2.452v12.252h-2.206l-.246-1.224h-.122c-.278.278-.58.523-.907.736-.784.488-1.665.736-2.646.736-1.485 0-2.675-.465-3.566-1.387-.89-.922-1.336-2.177-1.336-3.763M92.519 38.806c.679.77 1.522 1.15 2.536 1.15 1.012 0 1.858-.38 2.535-1.15.679-.768 1.018-1.774 1.018-3.014 0-1.242-.34-2.247-1.018-3.016-.677-.769-1.523-1.15-2.535-1.15-1.014 0-1.857.381-2.536 1.15-.68.769-1.017 1.774-1.017 3.016 0 1.24.338 2.246 1.017 3.014zM89.05 41.92V24.763h2.451v6.372h.12c.264-.293.485-.525.662-.698.18-.171.568-.384 1.166-.638.595-.254 1.253-.379 1.973-.379 1.632 0 2.982.579 4.042 1.74 1.062 1.16 1.594 2.703 1.594 4.632 0 1.926-.532 3.472-1.594 4.631-1.06 1.161-2.41 1.741-4.042 1.741-1.667 0-2.933-.573-3.8-1.717h-.12l-.248 1.472H89.05z" mask="url(#b)"/>
        <path fill="#326DDE" d="M44.85 45.395H.546A.544.544 0 0 1 0 44.85V.545C0 .245.243 0 .546 0H44.85c.303 0 .546.245.546.545V44.85a.544.544 0 0 1-.546.545" mask="url(#b)"/>
        <path fill="#FFF" d="M38.066 13.128H7.329a.604.604 0 0 1-.604-.602v-5.28c0-.332.271-.602.604-.602h30.737c.333 0 .604.27.604.603v5.279a.604.604 0 0 1-.604.602M38.128 38.75H7.268a.541.541 0 0 1-.543-.54v-5.402c0-.3.244-.541.544-.541h30.86c.3 0 .542.241.542.541v5.402c0 .3-.243.54-.543.54M12.664 25.96H7.273a.546.546 0 0 1-.548-.547v-5.39c0-.303.246-.548.548-.548h5.39c.303 0 .548.245.548.547v5.391a.546.546 0 0 1-.547.548" mask="url(#b)"/>
    </g>
</svg>
