<svg xmlns="http://www.w3.org/2000/svg" width="403" height="275" viewBox="0 0 403 275">
    <g fill="none" fill-rule="nonzero">
        <path fill="#EEF4FF" d="M402.848 176.217a100.703 100.703 0 0 1-2.412 22.032c-1.552 6.91-3.834 13.526-6.786 19.668 0 22.253-11.91 41.486-29.196 50.636-7.223 3.785-14.972 5.718-22.794 5.686H76.474c-14.173 0-27.308-4.824-38.08-13.042a68.344 68.344 0 0 1-8.744-7.946c-11.973-12.979-19.396-30.915-19.396-50.725C3.534 189.475-.028 174.239 0 158.676c0-32.584 15.28-60.603 37.168-72.973a53.727 53.727 0 0 1 8.983-4.05 49.178 49.178 0 0 1 3.296-1.005 49.805 49.805 0 0 1 8.984-1.554 48.628 48.628 0 0 1 3.292-.147h.606c1.218 0 2.426.053 3.627.142l.394-.844c.484-1.018.98-2.027 1.486-3.025.916-1.818 1.876-3.61 2.88-5.374a125.671 125.671 0 0 1 3.293-5.5l.292-.443c.648-1.019 1.31-2.026 1.987-3.02a140.726 140.726 0 0 1 6.69-9.04C108.371 20.45 148.152.24 192.874.24c34.798 0 66.607 12.237 90.972 32.456 9.23-6.589 19.657-10.046 30.263-10.034 34.418 0 62.328 35.698 62.328 79.734-.005 2.786-.122 5.57-.352 8.342 16.837 15.033 26.82 39.46 26.763 65.48z"/>
        <path fill="#2669E6" d="M82.985 97.912v7.166h-6.69a109.27 109.27 0 0 1 6.69-7.166zM86.281 96.095h8.983v8.983h-8.983z" opacity=".2"/>
        <path fill="#90B3F3" d="M98.557 96.095h8.983v8.983h-8.983zM110.836 96.095h8.983v8.983h-8.983zM123.112 96.095h8.983v8.983h-8.983z"/>
        <path fill="#2669E6" d="M135.391 96.095h8.983v8.983h-8.983z" opacity=".2"/>
        <path fill="#90B3F3" d="M147.67 96.095h8.983v8.983h-8.983z"/>
        <path fill="#2669E6" d="M159.945 96.095h8.983v8.983h-8.983zM172.224 96.095h8.983v8.983h-8.983zM184.5 96.095h8.983v8.983H184.5z" opacity=".2"/>
        <path fill="#C6D8FA" d="M196.779 96.095h8.983v8.983h-8.983z"/>
        <path fill="#90B3F3" d="M209.058 96.095h8.983v8.983h-8.983z"/>
        <path fill="#2669E6" d="M221.334 96.095h8.983v8.983h-8.983zM233.613 96.095h8.983v8.983h-8.983zM245.892 96.095h8.983v8.983h-8.983z" opacity=".2"/>
        <path fill="#90B3F3" d="M258.168 96.095h8.983v8.983h-8.983z"/>
        <path fill="#2669E6" d="M270.447 96.095h8.983v8.983h-8.983z" opacity=".2"/>
        <path fill="#90B3F3" d="M282.722 96.095h8.983v8.983h-8.983zM295.002 96.095h8.983v8.983h-8.983zM307.281 96.095h8.983v8.983h-8.983z"/>
        <path fill="#2669E6" d="M319.556 96.095h8.983v8.983h-8.983z" opacity=".2"/>
        <path fill="#C6D8FA" d="M331.835 96.095h8.983v8.983h-8.983zM344.111 96.095h8.983v8.983h-8.983zM70.71 112.194v4.261h-2.88a81.596 81.596 0 0 1 2.88-4.26z"/>
        <path fill="#2669E6" d="M74.002 107.472h8.983v8.983h-8.983z" opacity=".2"/>
        <path fill="#90B3F3" d="M86.281 107.472h8.983v8.983h-8.983z"/>
        <path fill="#2669E6" d="M98.557 107.472h8.983v8.983h-8.983z" opacity=".2"/>
        <path fill="#C6D8FA" d="M110.836 107.472h8.983v8.983h-8.983z"/>
        <path fill="#2669E6" d="M123.112 107.472h8.983v8.983h-8.983zM135.391 107.472h8.983v8.983h-8.983z" opacity=".2"/>
        <path fill="#90B3F3" d="M147.67 107.472h8.983v8.983h-8.983z"/>
        <path fill="#2669E6" d="M159.945 107.472h8.983v8.983h-8.983zM172.224 107.472h8.983v8.983h-8.983zM184.5 107.472h8.983v8.983H184.5z" opacity=".2"/>
        <path fill="#C6D8FA" d="M196.779 107.472h8.983v8.983h-8.983z"/>
        <path fill="#90B3F3" d="M209.058 107.472h8.983v8.983h-8.983z"/>
        <path fill="#2669E6" d="M221.334 107.472h8.983v8.983h-8.983zM233.613 107.472h8.983v8.983h-8.983zM245.892 107.472h8.983v8.983h-8.983z" opacity=".2"/>
        <path fill="#90B3F3" d="M258.168 107.472h8.983v8.983h-8.983z"/>
        <path fill="#2669E6" d="M270.447 107.472h8.983v8.983h-8.983z" opacity=".2"/>
        <path fill="#90B3F3" d="M282.722 107.472h8.983v8.983h-8.983z"/>
        <path fill="#2669E6" d="M295.002 107.472h8.983v8.983h-8.983zM307.281 107.472h8.983v8.983h-8.983z" opacity=".2"/>
        <path fill="#90B3F3" d="M319.556 107.472h8.983v8.983h-8.983z"/>
        <path fill="#C6D8FA" d="M331.835 107.472h8.983v8.983h-8.983zM344.111 107.472h8.983v8.983h-8.983z"/>
        <path fill="#2669E6" d="M46.151 121.558v6.278h-8.983v-3.067a61.455 61.455 0 0 1 8.983-3.211zM58.43 119.53v8.306h-8.983v-7.074z" opacity=".2"/>
        <path fill="#C6D8FA" d="M61.723 118.853h8.983v8.983h-8.983z"/>
        <path fill="#2669E6" d="M74.002 118.853h8.983v8.983h-8.983z" opacity=".2"/>
        <path fill="#90B3F3" d="M86.281 118.853h8.983v8.983h-8.983z"/>
        <path fill="#C6D8FA" d="M98.557 118.853h8.983v8.983h-8.983zM110.836 118.853h8.983v8.983h-8.983z"/>
        <path fill="#2669E6" d="M123.112 118.853h8.983v8.983h-8.983zM135.391 118.853h8.983v8.983h-8.983z" opacity=".2"/>
        <path fill="#90B3F3" d="M147.67 118.853h8.983v8.983h-8.983z"/>
        <path fill="#C6D8FA" d="M159.945 118.853h8.983v8.983h-8.983z"/>
        <path fill="#2669E6" d="M172.224 118.853h8.983v8.983h-8.983zM184.5 118.853h8.983v8.983H184.5z" opacity=".2"/>
        <path fill="#C6D8FA" d="M196.779 118.853h8.983v8.983h-8.983z"/>
        <path fill="#90B3F3" d="M209.058 118.853h8.983v8.983h-8.983z"/>
        <path fill="#2669E6" d="M221.334 118.853h8.983v8.983h-8.983zM233.613 118.853h8.983v8.983h-8.983z" opacity=".2"/>
        <path fill="#2669E6" d="M245.892 118.853h8.983v8.983h-8.983z"/>
        <path fill="#2669E6" d="M258.168 118.853h8.983v8.983h-8.983z" opacity=".2"/>
        <path fill="#C6D8FA" d="M270.447 118.853h8.983v8.983h-8.983z"/>
        <path fill="#90B3F3" d="M282.722 118.853h8.983v8.983h-8.983z"/>
        <path fill="#2669E6" d="M295.002 118.853h8.983v8.983h-8.983zM307.281 118.853h8.983v8.983h-8.983z" opacity=".2"/>
        <path fill="#90B3F3" d="M319.556 118.853h8.983v8.983h-8.983z"/>
        <path fill="#C6D8FA" d="M331.835 118.853h8.983v8.983h-8.983zM344.111 118.853h8.983v8.983h-8.983z"/>
        <path fill="#2669E6" d="M37.168 130.231h8.983v8.983h-8.983zM49.447 130.231h8.983v8.983h-8.983zM61.723 130.231h8.983v8.983h-8.983zM74.002 130.231h8.983v8.983h-8.983z" opacity=".2"/>
        <path fill="#90B3F3" d="M86.281 130.231h8.983v8.983h-8.983z"/>
        <path fill="#C6D8FA" d="M98.557 130.231h8.983v8.983h-8.983zM110.836 130.231h8.983v8.983h-8.983z"/>
        <path fill="#2669E6" d="M123.112 130.231h8.983v8.983h-8.983zM135.391 130.231h8.983v8.983h-8.983z" opacity=".2"/>
        <path fill="#90B3F3" d="M147.67 130.231h8.983v8.983h-8.983z"/>
        <path fill="#2669E6" d="M159.945 130.231h8.983v8.983h-8.983z" opacity=".2"/>
        <path fill="#C6D8FA" d="M172.224 130.231h8.983v8.983h-8.983z"/>
        <path fill="#2669E6" d="M184.5 130.231h8.983v8.983H184.5zM196.779 130.231h8.983v8.983h-8.983z" opacity=".2"/>
        <path fill="#90B3F3" d="M209.058 130.231h8.983v8.983h-8.983z"/>
        <path fill="#2669E6" d="M221.334 130.231h8.983v8.983h-8.983z" opacity=".2"/>
        <path fill="#2669E6" d="M233.613 130.231h8.983v8.983h-8.983z" opacity=".4"/>
        <path fill="#2669E6" d="M245.892 130.231h8.983v8.983h-8.983zM258.168 130.231h8.983v8.983h-8.983zM270.447 130.231h8.983v8.983h-8.983z" opacity=".2"/>
        <path fill="#90B3F3" d="M282.722 130.231h8.983v8.983h-8.983z"/>
        <path fill="#C6D8FA" d="M295.002 130.231h8.983v8.983h-8.983z"/>
        <path fill="#90B3F3" d="M307.281 130.231h8.983v8.983h-8.983z"/>
        <path fill="#2669E6" d="M319.556 130.231h8.983v8.983h-8.983zM331.835 130.231h8.983v8.983h-8.983z" opacity=".2"/>
        <path fill="#C6D8FA" d="M344.111 130.231h8.983v8.983h-8.983z"/>
        <path fill="#2669E6" d="M37.168 141.612h8.983v8.983h-8.983zM49.447 141.612h8.983v8.983h-8.983z" opacity=".2"/>
        <path fill="#C6D8FA" d="M61.723 141.612h8.983v8.983h-8.983z"/>
        <path fill="#2669E6" d="M74.002 141.612h8.983v8.983h-8.983z" opacity=".2"/>
        <path fill="#90B3F3" d="M86.281 141.612h8.983v8.983h-8.983z"/>
        <path fill="#C6D8FA" d="M98.557 141.612h8.983v8.983h-8.983zM110.836 141.612h8.983v8.983h-8.983z"/>
        <path fill="#2669E6" d="M123.112 141.612h8.983v8.983h-8.983zM135.391 141.612h8.983v8.983h-8.983z" opacity=".2"/>
        <path fill="#90B3F3" d="M147.67 141.612h8.983v8.983h-8.983z"/>
        <path fill="#C6D8FA" d="M159.945 141.612h8.983v8.983h-8.983z"/>
        <path fill="#2669E6" d="M172.224 141.612h8.983v8.983h-8.983z" opacity=".2"/>
        <path fill="#C6D8FA" d="M184.5 141.612h8.983v8.983H184.5zM196.779 141.612h8.983v8.983h-8.983z"/>
        <path fill="#90B3F3" d="M209.058 141.612h8.983v8.983h-8.983z"/>
        <path fill="#2669E6" d="M221.334 141.612h8.983v8.983h-8.983z" opacity=".2"/>
        <path fill="#2669E6" d="M233.613 141.612h8.983v8.983h-8.983z"/>
        <path fill="#2669E6" d="M245.892 141.612h8.983v8.983h-8.983zM258.168 141.612h8.983v8.983h-8.983zM270.447 141.612h8.983v8.983h-8.983z" opacity=".2"/>
        <path fill="#90B3F3" d="M282.722 141.612h8.983v8.983h-8.983z"/>
        <path fill="#2669E6" d="M295.002 141.612h8.983v8.983h-8.983z" opacity=".2"/>
        <path fill="#C6D8FA" d="M307.281 141.612h8.983v8.983h-8.983z"/>
        <path fill="#90B3F3" d="M319.556 141.612h8.983v8.983h-8.983z"/>
        <path fill="#2669E6" d="M331.835 141.612h8.983v8.983h-8.983z" opacity=".2"/>
        <path fill="#C6D8FA" d="M344.111 141.612h8.983v8.983h-8.983z"/>
        <path fill="#2669E6" d="M37.168 152.99h8.983v8.983h-8.983zM49.447 152.99h8.983v8.983h-8.983zM61.723 152.99h8.983v8.983h-8.983z" opacity=".2"/>
        <path fill="#C6D8FA" d="M74.002 152.99h8.983v8.983h-8.983z"/>
        <path fill="#90B3F3" d="M86.281 152.99h8.983v8.983h-8.983z"/>
        <path fill="#2669E6" d="M98.557 152.99h8.983v8.983h-8.983z" opacity=".2"/>
        <path fill="#C6D8FA" d="M110.836 152.99h8.983v8.983h-8.983z"/>
        <path fill="#2669E6" d="M123.112 152.99h8.983v8.983h-8.983zM135.391 152.99h8.983v8.983h-8.983z" opacity=".2"/>
        <path fill="#90B3F3" d="M147.67 152.99h8.983v8.983h-8.983z"/>
        <path fill="#C6D8FA" d="M159.945 152.99h8.983v8.983h-8.983z"/>
        <path fill="#2669E6" d="M172.224 152.99h8.983v8.983h-8.983z" opacity=".2"/>
        <path fill="#C6D8FA" d="M184.5 152.99h8.983v8.983H184.5zM196.779 152.99h8.983v8.983h-8.983z"/>
        <path fill="#90B3F3" d="M209.058 152.99h8.983v8.983h-8.983z"/>
        <path fill="#2669E6" d="M221.334 152.99h8.983v8.983h-8.983zM233.613 152.99h8.983v8.983h-8.983zM245.892 152.99h8.983v8.983h-8.983zM258.168 152.99h8.983v8.983h-8.983zM270.447 152.99h8.983v8.983h-8.983z" opacity=".2"/>
        <path fill="#90B3F3" d="M282.722 152.99h8.983v8.983h-8.983z"/>
        <path fill="#2669E6" d="M295.002 152.99h8.983v8.983h-8.983zM307.281 152.99h8.983v8.983h-8.983z" opacity=".2"/>
        <path fill="#90B3F3" d="M319.556 152.99h8.983v8.983h-8.983z"/>
        <path fill="#2669E6" d="M331.835 152.99h8.983v8.983h-8.983z" opacity=".2"/>
        <path fill="#C6D8FA" d="M344.111 152.99h8.983v8.983h-8.983zM37.168 164.371h8.983v8.983h-8.983zM49.447 164.371h8.983v8.983h-8.983zM61.723 164.371h8.983v8.983h-8.983zM74.002 164.371h8.983v8.983h-8.983z"/>
        <path fill="#2669E6" d="M86.281 164.371h8.983v8.983h-8.983z" opacity=".2"/>
        <path fill="#90B3F3" d="M98.557 164.371h8.983v8.983h-8.983zM110.836 164.371h8.983v8.983h-8.983zM123.112 164.371h8.983v8.983h-8.983z"/>
        <path fill="#2669E6" d="M135.391 164.371h8.983v8.983h-8.983z" opacity=".2"/>
        <path fill="#90B3F3" d="M147.67 164.371h8.983v8.983h-8.983zM159.945 164.371h8.983v8.983h-8.983zM172.224 164.371h8.983v8.983h-8.983zM184.5 164.371h8.983v8.983H184.5z"/>
        <path fill="#2669E6" d="M196.779 164.371h8.983v8.983h-8.983zM209.058 164.371h8.983v8.983h-8.983z" opacity=".2"/>
        <path fill="#90B3F3" d="M221.334 164.371h8.983v8.983h-8.983z"/>
        <path fill="#2669E6" d="M233.613 164.371h8.983v8.983h-8.983zM245.892 164.371h8.983v8.983h-8.983zM258.168 164.371h8.983v8.983h-8.983zM270.447 164.371h8.983v8.983h-8.983zM282.722 164.371h8.983v8.983h-8.983z" opacity=".2"/>
        <path fill="#90B3F3" d="M295.002 164.371h8.983v8.983h-8.983zM307.281 164.371h8.983v8.983h-8.983z"/>
        <path fill="#2669E6" d="M319.556 164.371h8.983v8.983h-8.983zM331.835 164.371h8.983v8.983h-8.983z" opacity=".2"/>
        <path fill="#C6D8FA" d="M344.111 164.371h8.983v8.983h-8.983z"/>
        <circle cx="258.654" cy="185.14" r="12.279" fill="#767D9F"/>
        <path fill="#AE6E79" d="M258.016 169.52a238.199 238.199 0 0 1 3.12 16.162c.257 1.613.486 3.314-.098 4.839-.49 1.271-1.486 2.264-2.268 3.377-.782 1.113-1.373 2.539-.898 3.814.475 1.274 1.863 1.971 3.187 2.33 3.789 1.022 7.828.279 11.6-.827a18.766 18.766 0 0 0 4.862-2.014c1.599-1.014 2.909-2.423 4.113-3.874 5.497-6.666 9.096-14.666 12.484-22.618a13.776 13.776 0 0 1-11.66-4.697c-1.387-1.63-2.405-3.902-1.623-5.895-2.292 1.257-5.015 1.342-7.483 2.201a26.583 26.583 0 0 0-4.402 2.166 271.862 271.862 0 0 0-5.028 2.979c-1.905 1.148-3.69 2.169-5.906 2.056z"/>
        <path fill="#1B324B" d="M283.698 178.738c-2.152 4.187-4.951 8.212-8.948 10.705-3.997 2.493-9.377 3.17-13.381.705-1.972-1.205-3.465-3.036-5.187-4.578-1.722-1.543-3.874-2.863-6.187-2.662-2.55.221-4.547 2.211-6.254 4.116-2.592 2.895-5.096 5.912-6.93 9.339-3.522 6.585-4.357 14.283-4.202 21.748.155 7.465 1.236 14.892 1.261 22.357.035 9.184-1.521 18.294-3.095 27.34 14.473-1.781 28.963 2.113 43.468 3.589 9.282.954 18.635.933 27.967.908 1.64 0 3.387-.042 4.754-.95a6.409 6.409 0 0 0 1.968-2.339c1.289-2.377 1.807-5.088 2.166-7.768.912-6.768.94-13.62.965-20.452.063-16.55.123-33.161-1.98-49.581-.517-4.04-1.179-8.1-2.728-11.878-1.55-3.779-4.078-7.254-7.614-9.279-2.271-1.303-7.535-3.57-10.212-2.257-3.003 1.465-4.39 8.134-5.831 10.937z"/>
        <path fill="#4F72FE" d="M284.768 225.474c-.545-10.212-2.767-21.11 1.962-30.175 1.162-2.225-3.007-5.004-1.719-7.159a32.425 32.425 0 0 0 3.543-8.426c.267-1.018.482-2.096.229-3.117-.469-1.863-2.31-2.972-3.874-4.106-1.725-1.253-2.613-5.074-3.169-7.141s4.426.422 6.43-.314c2.782-1.017 6.317-.376 9.092.655 1.55.57 3.233.62 4.884.662 3.208.085 6.427.166 9.61-.228 1.43-.18 2.863-.451 4.3-.37 3.666.208 6.853 2.715 9.022 5.68 2.169 2.965 3.55 6.42 5.328 9.63 1.482 2.677 3.25 5.205 4.514 7.99 1.12 2.466 1.828 5.114 2.528 7.748l1.807 6.758c.316.966.466 1.98.444 2.996-.092 1.081-.57 2.088-1.057 3.05a57.793 57.793 0 0 1-6.574 10.032c-3.8 4.66-8.413 8.86-10.67 14.438-.88 2.173-1.37 4.483-1.817 6.786a249.294 249.294 0 0 0-3.838 27.872 61.343 61.343 0 0 0-19.551-5.356c-1.969-.205-4.508.183-6.381-.353-3.134-.89-3.48-6.19-3.955-8.965-.76-4.42-.912-8.916-.94-13.381-.035-5.078.124-10.146-.148-15.206zM215.943 206.378c1.482 8.451 3.116 16.927 6.338 24.868-.08.077-.162.148-.243.218a18.24 18.24 0 0 1-.89.704c-.723.507-1.515.937-2.114 1.6a2.817 2.817 0 0 0-.528.862 1.93 1.93 0 0 0 0 1.574c-1.68.743-3.63.514-5.514.444-1.624-.06-3.198 0-4.5.89-1.81 1.247-2.356 3.642-2.649 5.818-.108.793-.2 1.588-.278 2.384a66.417 66.417 0 0 0-.25 9.62c.019.451.043.902.074 1.353-5.754-.138-10.997-3.138-15.959-6.054-1.134-.665-2.303-1.366-3.039-2.465a5.564 5.564 0 0 1-.813-3.623c0-.18.031-.352.056-.536.158-1.044.428-2.07.806-3.056a37.75 37.75 0 0 1 6.758-11.497c1.26-1.472 2.68-2.913 3.268-4.761.257-.807.352-1.662.613-2.465 1.169-3.48 5.387-5.124 6.831-8.501.352-.806.514-1.69.95-2.465.394-.644.901-1.21 1.497-1.673.257-.214.525-.422.79-.63a104.627 104.627 0 0 0 7.151-6.145c.427-.401.85-.807 1.268-1.218-.056 1.594.07 3.189.377 4.754z"/>
        <path fill="#4F72FE" d="M251.428 181.383c-.507.535-1.057 1.039-1.595 1.539l-.145.13-.57.528a13.733 13.733 0 0 0-2.659 3.095l-.06.1c-1.796 3.214-1.13 7.172-.63 10.824.62 4.55.9 9.141.834 13.733-.091 6.339-.838 12.635-.852 18.967 0 1.436.032 2.87.095 4.306.102 2.335.279 4.666.49 6.997.229 2.557.503 5.11.76 7.663.205 1.975.398 3.947.56 5.92.081 1.02.159 2.038.222 3.06.074 1.197.134 2.397.17 3.595.024.76.038 1.517.038 2.278v1.292c0 .824-.022 1.646-.067 2.465a68.834 68.834 0 0 1-.215 3.17c-.109 1.151-.303 2.408-1.113 3.218a2.94 2.94 0 0 1-.154.141l-1.141-.14a117.164 117.164 0 0 0-23.7-.423c.173-1.19.332-2.377.487-3.571a248.4 248.4 0 0 0 .655-5.754 223.358 223.358 0 0 0 1.067-17.227c.04-1.577.058-3.156.056-4.736 0-1.535-.013-3.073-.039-4.613 0-.507-.021-1.014-.063-1.518a9.631 9.631 0 0 0-.187-1.348 17.561 17.561 0 0 0-1.056-2.987c-.078-.183-.152-.352-.226-.545-.042-.096-.08-.194-.12-.29 2.029-1.806 3.473-4.225 4.86-6.605 2.25-3.835 4.553-7.839 4.93-12.269.377-4.43-1.824-9.406-6.057-10.758-1.151-.352-2.37-.45-3.556-.658-1.12-.197-3.455-.645-4.75-1.448-.705.724-1.41 1.434-2.114 2.13a7.8 7.8 0 0 1 .765-3.066l.5.024a.954.954 0 0 1-.057-.352c0-.377.26-.803.817-1.274 1.659-1.409 4.268-1.722 5.314-3.627.437-.793.51-1.737.863-2.568 1.01-2.37 3.912-3.243 5.659-5.137 1.746-1.895 2.183-4.578 3.595-6.691a10.078 10.078 0 0 1 4.226-3.521 9.41 9.41 0 0 1 .43-.194c2.922-1.25 6.394-1.535 9.423-1.528 1.176 0 4.225.035 5.718.63.242.087.464.222.652.398 1.591 1.732-.884 5.391-2.06 6.645z"/>
        <path fill="#4F72FE" d="M216.467 198.331a21.438 21.438 0 0 1 16.46 1.715c2.535 1.409 4.81 3.374 6.204 5.91 2.095 3.802 2.004 8.387 1.856 12.729-.074 2.173-.17 4.423-1.127 6.374-1.11 2.257-3.201 3.806-5.335 5.074a14.874 14.874 0 0 1-4.338 1.877c-2.367.514-4.825.077-7.209-.352-2.591-.48-5.373-1.057-7.173-2.986-1.056-1.12-1.634-2.575-2.204-3.997-.82-2.054-1.641-4.106-2.465-6.156-1.426-3.56-1.909-6.521-.025-9.99.856-1.58 1.902-3.06 2.747-4.652.423-.81 1.937-5.338 2.61-5.546z"/>
        <path fill="#11263C" d="M364.465 259.206v10.529a58.913 58.913 0 0 1-22.794 4.507h-94.969c-.05.05-.102.095-.155.14l-1.14-.14H76.473c-14.173 0-27.308-3.824-38.08-10.339v-16.075l81.245-9.377h.064l47.313 4.007 12.244 1.056 6.36.54 13.163 1.115 6.772.574 9.86.838 1.387.117 7.106.602 9.642.792 13.557 1.148 22.6 1.92 15.9 1.348 26.107 2.215 4.965.419.536.046.464.038 6.557.557 7.198.613.834.07 32.197 2.74z"/>
        <path fill="#1B324B" d="M269.035 258.818L167.217 241.44l-3.947 19.963 46.672 5.588 14.371 1.8 39.531-7.786z"/>
        <path fill="#1B324B" d="M216.33 267.79l51.011-9.588a1.76 1.76 0 0 1 2.092 1.736 1.76 1.76 0 0 1-1.44 1.736l-49.818 9.328-1.845-3.211z"/>
        <path fill="#AE6E79" d="M238.458 237.637c1.589-.148 3.198-.398 4.628-1.102 1.76-.877 3.13-2.388 4.76-3.5 3.585-2.465 8.381-2.796 12.49-1.38 4.11 1.415 7.54 4.447 9.942 8.067 1.595 2.412 2.792 5.49 1.665 8.152a10.744 10.744 0 0 1-1.45 2.268l-2.937 3.838c-.558.807-1.23 1.529-1.993 2.144-1.099.8-2.465 1.127-3.81 1.324-3.575.522-7.212.226-10.815.465-6.187.412-12.23 2.405-18.43 2.339-3.564-.04-7.082-.758-10.565-1.476l-15.413-3.17c-2.683-.549-5.715-1.351-6.98-3.785-.566-1.095-.672-2.363-.739-3.595-.183-3.395 0-7.17 2.352-9.617 2.212-2.296 5.709-3.021 8.35-4.719 3.232-2.08 4.3-1.408 7.708.155a42.257 42.257 0 0 0 21.237 3.592z"/>
        <path fill="#000" d="M238.458 237.637c1.589-.148 3.198-.398 4.628-1.102 1.76-.877 3.13-2.388 4.76-3.5 3.585-2.465 8.381-2.796 12.49-1.38 4.11 1.415 7.54 4.447 9.942 8.067 1.595 2.412 2.792 5.49 1.665 8.152a10.744 10.744 0 0 1-1.45 2.268l-2.937 3.838c-.558.807-1.23 1.529-1.993 2.144-1.099.8-2.465 1.127-3.81 1.324-3.575.522-7.212.226-10.815.465-6.187.412-12.23 2.405-18.43 2.339-3.564-.04-7.082-.758-10.565-1.476l-15.413-3.17c-2.683-.549-5.715-1.351-6.98-3.785-.566-1.095-.672-2.363-.739-3.595-.183-3.395 0-7.17 2.352-9.617 2.212-2.296 5.709-3.021 8.35-4.719 3.232-2.08 4.3-1.408 7.708.155a42.257 42.257 0 0 0 21.237 3.592z" opacity=".05"/>
        <path fill="#AE6E79" d="M300.354 232.81c-4.324 1.672-8.673 3.352-13.202 4.348-7.592 1.673-15.536 1.409-23.068 3.32-3.98 1.015-7.934 2.649-12.022 2.318-1.828-.148-3.592-.704-5.37-1.127-9.99-2.465-21.347-1.666-29.46 4.673-2.775 2.166-5.047 4.867-7.107 7.747a5.176 5.176 0 0 0 2.081 7.705 30.502 30.502 0 0 0 9.994 2.666c4.624.408 9.268-.247 13.867-.902 6.825-.968 13.653-1.94 20.46-3.028 2.444-.391 4.887-.796 7.345-1.106 17.688-2.236 35.697.482 53.43-1.384 1.793-.19 3.617-.437 5.247-1.2 4.128-1.937 6.17-7.043 5.318-11.53-.852-4.486-4.141-8.215-8.1-10.504-3.317-1.926-6.894-2.705-10.588-3.521-3.43-.8-5.522.257-8.825 1.524z"/>
        <path fill="#000" d="M338.29 205.99c1.95 2.557 2.366 5.987 2.155 9.188-.211 3.2-.972 6.366-1.084 9.581-.155 4.41.908 8.804.729 13.199-.127 3.074-.856 6.088-1.719 9.039-1.018 3.483-2.49 7.226-5.705 8.899-4.268 2.222-13.219.971-17.709 2.711.409-2.546 4.325-6.233 4.733-8.779.282-1.76.567-3.57.264-5.335-.387-2.25-1.708-4.247-3.275-5.909-2.493-2.644-5.747-4.634-9.32-5.282-3.575-.648-12.326-.116-15.185 2.141-.352-2.33 6.198-4.578 8.5-5.081 1.148-.257 2.465-.113 3.385-.842 1.76-1.38.482-4.13.567-6.338.066-1.76 1.095-3.374 1.302-5.134.353-2.818-1.486-5.687-.764-8.452.268-1.021.863-1.919 1.275-2.89 1.254-2.976.704-6.371.035-9.533-.415-1.986-.82-4.226.285-5.92 1.025-1.58 3.934 4.05 5.797 3.79 6.152-.863 11.719-5.424 16.688-1.691 2.531 1.902 2.862 3.874 3.873 6.589.983 2.584 3.529 3.908 5.173 6.05z" opacity=".1"/>
        <path fill="#4F72FE" d="M339.346 205.99c1.951 2.557 2.367 5.987 2.156 9.188-.212 3.2-.972 6.366-1.085 9.581-.155 4.41.909 8.804.729 13.199-.127 3.074-.856 6.088-1.719 9.039-1.017 3.483-2.49 7.226-5.704 8.899-4.268 2.222-13.22.971-17.71 2.711.41-2.546 4.325-6.233 4.733-8.779.282-1.76.567-3.57.265-5.335-.388-2.25-1.708-4.247-3.275-5.909-2.493-2.644-5.747-4.634-9.321-5.282-3.575-.648-12.325-.116-15.185 2.141-.352-2.33 6.198-4.578 8.5-5.081 1.149-.257 2.466-.113 3.385-.842 1.76-1.38.482-4.13.567-6.338.067-1.76 1.095-3.374 1.303-5.134.352-2.818-1.486-5.687-.764-8.452.267-1.021.862-1.919 1.274-2.89 1.254-2.976.705-6.371.036-9.533-.416-1.986-.82-4.226.285-5.92 1.025-1.58 3.028-2.18 4.891-2.444a24.093 24.093 0 0 1 17.607 4.543c2.532 1.902 2.863 3.874 3.874 6.589.968 2.584 3.514 3.908 5.158 6.05z"/>
        <path fill="#1B324B" d="M106.346 189.306l19.146 70.759a4.42 4.42 0 0 0 3.842 3.243l86.176 8.279a4.416 4.416 0 0 0 4.711-5.451l-20.966-85.352a4.416 4.416 0 0 0-4.62-3.349l-84.37 6.31a4.416 4.416 0 0 0-3.919 5.56z"/>
        <ellipse cx="277.173" cy="193.518" fill="#FFF" rx="9.473" ry="9.596"/>
        <path fill="#FFF" d="M284.951 176.013s1.997 5.937-3.894 8.433l-.754 1.317 3.69 3.642s4.55-8.3 4.057-11.248c0 0-.704-2.993-3.099-2.144z"/>
        <circle cx="278.261" cy="193.979" r="9.135" fill="#2669E6"/>
        <path fill="#2669E6" d="M288.096 179.506l-1.45-2.395-2.114-.299c.451-7.884-1.595-10.233-1.595-10.233l-.475-.046-2.07-.2-3.895-4.043v-1.148c5.472.651 8.497 3.25 10.13 6.296 2.888 5.346 1.47 12.068 1.47 12.068z"/>
        <path fill="#000" stroke="#4C4981" stroke-width=".5" d="M282.48 165.082v1.451l-2.071-.2-3.895-4.043s6.025 1.348 5.965 2.792zM288.096 179.506l-1.45-2.395v-9.659c2.87 5.332 1.45 12.054 1.45 12.054z" opacity=".1"/>
        <ellipse cx="256.747" cy="189.707" fill="#FFF" rx="5.081" ry="9.268" transform="rotate(-30 256.747 189.707)"/>
        <path fill="#2669E6" d="M258.118 188.933c2.56 4.433 5.702 7.395 3.272 8.803-2.43 1.409-9.508.704-12.068-3.733-2.56-4.436-.236-10.564 2.194-11.972 2.43-1.409 4.039 2.458 6.602 6.902z"/>
        <path fill="#000" d="M280.912 156.994c0 14.166-9.694 27.819-23.86 27.819-14.169 0-25.654-11.486-25.654-25.654s11.485-25.653 25.653-25.653c14.167.014 23.861 9.317 23.861 23.488z" opacity=".1"/>
        <circle cx="257.051" cy="158.469" r="25.653" fill="#AE6E79"/>
        <path fill="#444053" d="M254.798 147.102c3.053 1.123 4.86 4.278 7.599 6.036 3.873 2.465 8.916 1.827 13.339.609 2.465-.673 5.043-1.493 7.469-.747.357.158.75.214 1.137.162.528-.151.79-.736.962-1.257 3-8.944 1.651-19.075-2.877-27.35-1.17-2.134-2.571-4.198-4.5-5.68-1.522-1.166-3.31-1.93-5.114-2.582a51.06 51.06 0 0 0-10.17-2.51 6.317 6.317 0 0 0-1.855-.06c-.849.137-1.61.595-2.367 1.003a24.22 24.22 0 0 1-10.515 2.856c-4.93.187-10.564-.975-14.363 2.187-4.578 3.792-3.437 11.19-6.406 16.34-1.965 3.404-5.754 5.876-6.377 9.753a9.004 9.004 0 0 0 .222 3.547c1.45 5.965 7.226 10.585 13.381 10.694a5.078 5.078 0 0 0 2.733-.56 6.18 6.18 0 0 0 1.44-1.37c4.032-4.775 8.645-13.874 16.262-11.071z"/>
        <path fill="#000" d="M285.304 149.31c-.173.521-.434 1.106-.962 1.257a2.113 2.113 0 0 1-1.137-.162c-2.426-.746-5.018.074-7.466.747-4.426 1.218-9.48 1.87-13.339-.61-2.743-1.76-4.546-4.93-7.602-6.035-7.617-2.817-12.23 6.296-16.273 11.071a6.18 6.18 0 0 1-1.44 1.37 5.078 5.078 0 0 1-2.732.56c-6.135-.11-11.913-4.73-13.382-10.695a13.958 13.958 0 0 1-.204-1.056c0 .032 0 .06-.018.091a9.004 9.004 0 0 0 .222 3.546c1.451 5.966 7.23 10.586 13.382 10.695a5.078 5.078 0 0 0 2.732-.56 6.18 6.18 0 0 0 1.44-1.37c4.043-4.775 8.656-13.874 16.273-11.071 3.056 1.123 4.86 4.278 7.602 6.036 3.874 2.465 8.913 1.827 13.34.609 2.464-.673 5.039-1.493 7.465-.747.357.158.75.214 1.137.162.528-.151.79-.736.962-1.257a31.795 31.795 0 0 0 1.577-11.36 31.27 31.27 0 0 1-1.577 8.779z" opacity=".1"/>
    </g>
</svg>
