<svg xmlns="http://www.w3.org/2000/svg" width="80" height="81" viewBox="0 0 80 81">
    <g fill="#000" fill-rule="nonzero">
        <path d="M26.25 21.64H10a1.562 1.562 0 1 0 0 3.126h16.25a1.562 1.562 0 1 0 0-3.125zM32.813 24.766c.41 0 .814-.168 1.104-.458.29-.29.458-.694.458-1.105 0-.41-.167-.814-.458-1.105a1.575 1.575 0 0 0-1.105-.457c-.41 0-.814.167-1.104.457-.29.29-.458.694-.458 1.105 0 .41.167.814.458 1.105.29.29.694.458 1.105.458zM25.625 31.016H10a1.562 1.562 0 1 0 0 3.125h15.625a1.562 1.562 0 1 0 0-3.125zM25.625 40.39H10a1.562 1.562 0 1 0 0 3.126h15.625a1.562 1.562 0 1 0 0-3.125zM10 8.828c.41 0 .814-.167 1.105-.458.29-.29.457-.694.457-1.104 0-.411-.167-.815-.457-1.105A1.575 1.575 0 0 0 10 5.703c-.41 0-.814.167-1.105.458-.29.29-.457.694-.457 1.105 0 .41.167.814.457 1.104.29.29.694.458 1.105.458zM16.511 8.828c.411 0 .814-.167 1.104-.458.291-.29.459-.694.459-1.104 0-.411-.168-.815-.459-1.105a1.574 1.574 0 0 0-1.104-.458 1.58 1.58 0 0 0-1.106.458c-.29.29-.456.694-.456 1.105 0 .41.165.814.456 1.104.292.29.694.458 1.106.458zM23.02 8.828a1.58 1.58 0 0 0 1.107-.458c.29-.29.456-.694.456-1.104 0-.411-.166-.815-.456-1.105a1.58 1.58 0 0 0-1.107-.458c-.41 0-.814.167-1.104.458-.291.29-.458.694-.458 1.105 0 .41.167.814.458 1.104.29.29.693.458 1.104.458zM32.813 8.828H56.51a1.562 1.562 0 1 0 0-3.125H32.812a1.562 1.562 0 1 0 0 3.125zM48.438 34.766c-7.582 0-13.75 6.168-13.75 13.75 0 7.581 6.168 13.75 13.75 13.75s13.75-6.169 13.75-13.75c0-7.582-6.168-13.75-13.75-13.75zm0 24.375c-5.859 0-10.625-4.767-10.625-10.625 0-5.86 4.766-10.625 10.625-10.625s10.625 4.766 10.625 10.625c0 5.858-4.766 10.625-10.625 10.625z"/>
        <path d="M78.448 71.033l-12.4-12.4a20.19 20.19 0 0 0 2.703-10.117A20.19 20.19 0 0 0 65.625 37.7V5.391A5.319 5.319 0 0 0 60.312.078h-55A5.319 5.319 0 0 0 0 5.391v46.875a5.319 5.319 0 0 0 5.313 5.312h24.95c3.336 6.664 10.23 11.25 18.175 11.25 3.68 0 7.136-.984 10.116-2.703l12.401 12.401a5.28 5.28 0 0 0 3.747 1.55 5.28 5.28 0 0 0 3.746-1.55A5.262 5.262 0 0 0 80 74.78a5.264 5.264 0 0 0-1.552-3.747zM5.313 3.203h55A2.19 2.19 0 0 1 62.5 5.391v5.937H3.125V5.391a2.19 2.19 0 0 1 2.188-2.188zm0 51.25a2.19 2.19 0 0 1-2.188-2.187V14.453H62.5v19.418a20.243 20.243 0 0 0-14.062-5.668c-11.2 0-20.312 9.112-20.312 20.313 0 2.064.31 4.058.886 5.937h-23.7zm25.938-5.937c0-9.477 7.71-17.188 17.187-17.188s17.188 7.71 17.188 17.188c0 9.477-7.711 17.187-17.188 17.187-9.477 0-17.187-7.71-17.187-17.187zm44.987 27.8a2.175 2.175 0 0 1-3.073 0l-11.99-11.99a20.49 20.49 0 0 0 3.073-3.073l11.99 11.99c.411.41.637.956.637 1.537 0 .58-.226 1.126-.637 1.537z"/>
        <path d="M48.438 41.485a1.562 1.562 0 1 0 0 3.125 3.91 3.91 0 0 1 3.906 3.906 1.562 1.562 0 1 0 3.125 0 7.038 7.038 0 0 0-7.03-7.031z"/>
    </g>
</svg>
