<svg xmlns="http://www.w3.org/2000/svg" width="80" height="72" viewBox="0 0 80 72">
    <g fill="#000" fill-rule="nonzero">
        <path d="M48.438 26.328c-7.582 0-13.75 6.168-13.75 13.75s6.168 13.75 13.75 13.75 13.75-6.168 13.75-13.75-6.168-13.75-13.75-13.75zm0 24.375c-5.859 0-10.625-4.766-10.625-10.625s4.766-10.625 10.625-10.625 10.625 4.766 10.625 10.625-4.766 10.625-10.625 10.625z"/>
        <path d="M48.438 33.047a1.562 1.562 0 1 0 0 3.125 3.91 3.91 0 0 1 3.906 3.906 1.562 1.562 0 1 0 3.125 0 7.038 7.038 0 0 0-7.03-7.03zM9.632 11.86a1.563 1.563 0 0 0-2.775 1.437l4.206 8.125c.272.526.822.847 1.41.844a1.563 1.563 0 0 0 1.386-.887l2.546-5.301 2.766 5.344c.269.518.804.844 1.387.844h.024a1.564 1.564 0 0 0 1.385-.887l3.902-8.125a1.563 1.563 0 0 0-2.817-1.352l-2.546 5.301-2.766-5.343a1.563 1.563 0 0 0-2.796.042l-2.546 5.301-2.766-5.343zM19.686 3.203c.411 0 .814-.167 1.104-.458.292-.29.458-.694.458-1.104 0-.411-.166-.815-.458-1.105a1.574 1.574 0 0 0-1.104-.458c-.411 0-.814.167-1.104.458-.292.29-.459.694-.459 1.105 0 .41.167.814.459 1.104.29.29.693.458 1.104.458z"/>
        <path d="M80 26.953V6.328a6.257 6.257 0 0 0-6.25-6.25H26.248a1.563 1.563 0 0 0 0 3.125H73.75a3.129 3.129 0 0 1 3.125 3.125v20.625a3.129 3.129 0 0 1-3.125 3.125h-7.5c-.045 0-.09.003-.133.007A20.42 20.42 0 0 0 55.134 20.9l2.316-4.823 2.766 5.344c.269.519.804.844 1.387.844h.024a1.563 1.563 0 0 0 1.385-.887l3.902-8.125a1.562 1.562 0 1 0-2.817-1.352l-2.545 5.301-2.767-5.343a1.56 1.56 0 1 0-2.796.042l-2.546 5.301-2.766-5.343a1.563 1.563 0 0 0-2.775 1.437l3.458 6.68a20.269 20.269 0 0 0-8.464.558l3.496-7.28a1.562 1.562 0 1 0-2.817-1.353l-2.546 5.301-2.766-5.343a1.561 1.561 0 1 0-2.796.042l-2.546 5.301-2.766-5.343a1.562 1.562 0 0 0-2.775 1.437l4.206 8.125c.272.526.82.847 1.41.844a1.563 1.563 0 0 0 1.386-.887l2.546-5.3 2.766 5.343c.046.09.103.17.164.248a20.449 20.449 0 0 0-9.094 8.408H6.25a3.129 3.129 0 0 1-3.125-3.125V6.328A3.129 3.129 0 0 1 6.25 3.203h6.405a1.562 1.562 0 1 0 0-3.125H6.25A6.257 6.257 0 0 0 0 6.328v20.625a6.257 6.257 0 0 0 6.25 6.25h23.074a20.217 20.217 0 0 0-1.198 6.875c0 11.2 9.112 20.313 20.312 20.313 3.68 0 7.136-.984 10.116-2.703l12.401 12.401a5.282 5.282 0 0 0 3.747 1.55 5.282 5.282 0 0 0 3.746-1.55 5.304 5.304 0 0 0 0-7.493l-4.873-4.873a1.562 1.562 0 0 0-2.209 2.21l4.872 4.873a2.176 2.176 0 0 1 0 3.074 2.176 2.176 0 0 1-3.073 0l-11.99-11.991c4.617-3.727 7.576-9.429 7.576-15.81 0-2.413-.424-4.727-1.2-6.876h6.199a6.257 6.257 0 0 0 6.25-6.25zM48.438 57.266c-9.477 0-17.187-7.71-17.187-17.188 0-9.477 7.71-17.187 17.187-17.187s17.188 7.71 17.188 17.187-7.71 17.188-17.188 17.188z"/>
        <path d="M67.66 54.017c-.291.29-.458.694-.458 1.105 0 .41.167.814.457 1.105.293.29.694.458 1.105.458.41 0 .814-.168 1.105-.458a1.566 1.566 0 0 0-1.105-2.667c-.41 0-.814.167-1.105.457z"/>
    </g>
</svg>
